# xmcd CD database file
#
# Track frame offsets:
#	150
#	17292
#	38562
#	54682
#	78980
#	99070
#	116060
#	129380
#	155137
#	178365
#	198142
#	222007
#	237882
#	262200
#	278920
#
# Disc length: 4011 seconds
#
# Revision: 7
# Processed by: cddbd v1.5.2PL0 Copyright (c) Steve Scherf et al.
# Submitted via: CDex 1.51
#
DISCID=c90fa90f
DTITLE=Peter Maffay - Heute vor dreissig Jahren
DYEAR=2001
DGENRE=2001
TTITLE0=Samstag Abend
TTITLE1=Liebe wird verboten
TTITLE2=So bist Du
TTITLE3=Weil es Dich gibt
TTITLE4=Und es war Sommer
TTITLE5=Josie
TTITLE6=Schatten in die Haut tätowiert
TTITLE7=Eiszeit
TTITLE8=Sonne in der Nacht
TTITLE9=Siehst Du die Sonne
TTITLE10=Alter Mann
TTITLE11=Rette mich
TTITLE12=Über sieben Brücken mußt Du geh'n
TTITLE13=Tiefer
TTITLE14=Du
EXTD=YEAR: 2001
EXTT0=
EXTT1=
EXTT2=
EXTT3=
EXTT4=
EXTT5=
EXTT6=
EXTT7=
EXTT8=
EXTT9=
EXTT10=
EXTT11=
EXTT12=
EXTT13=
EXTT14=
PLAYORDER=
